%TF.GenerationSoftware,KiCad,Pcbnew,9.0.3*%
%TF.CreationDate,2026-01-09T17:49:23-03:00*%
%TF.ProjectId,PCB-SPARK-Nano-0.1,5043422d-5350-4415-924b-2d4e616e6f2d,rev?*%
%TF.SameCoordinates,Original*%
%TF.FileFunction,Copper,L1,Top*%
%TF.FilePolarity,Positive*%
%FSLAX46Y46*%
G04 Gerber Fmt 4.6, Leading zero omitted, Abs format (unit mm)*
G04 Created by KiCad (PCBNEW 9.0.3) date 2026-01-09 17:49:23*
%MOMM*%
%LPD*%
G01*
G04 APERTURE LIST*
G04 Aperture macros list*
%AMRoundRect*
0 Rectangle with rounded corners*
0 $1 Rounding radius*
0 $2 $3 $4 $5 $6 $7 $8 $9 X,Y pos of 4 corners*
0 Add a 4 corners polygon primitive as box body*
4,1,4,$2,$3,$4,$5,$6,$7,$8,$9,$2,$3,0*
0 Add four circle primitives for the rounded corners*
1,1,$1+$1,$2,$3*
1,1,$1+$1,$4,$5*
1,1,$1+$1,$6,$7*
1,1,$1+$1,$8,$9*
0 Add four rect primitives between the rounded corners*
20,1,$1+$1,$2,$3,$4,$5,0*
20,1,$1+$1,$4,$5,$6,$7,0*
20,1,$1+$1,$6,$7,$8,$9,0*
20,1,$1+$1,$8,$9,$2,$3,0*%
G04 Aperture macros list end*
%TA.AperFunction,ComponentPad*%
%ADD10RoundRect,0.330882X-0.794118X-0.794118X0.794118X-0.794118X0.794118X0.794118X-0.794118X0.794118X0*%
%TD*%
%TA.AperFunction,ComponentPad*%
%ADD11RoundRect,0.330882X0.794118X0.794118X-0.794118X0.794118X-0.794118X-0.794118X0.794118X-0.794118X0*%
%TD*%
%TA.AperFunction,ComponentPad*%
%ADD12RoundRect,0.312501X-1.187499X1.187499X-1.187499X-1.187499X1.187499X-1.187499X1.187499X1.187499X0*%
%TD*%
%TA.AperFunction,ComponentPad*%
%ADD13RoundRect,0.330882X-0.794118X0.794118X-0.794118X-0.794118X0.794118X-0.794118X0.794118X0.794118X0*%
%TD*%
%TA.AperFunction,ViaPad*%
%ADD14C,10.000000*%
%TD*%
%TA.AperFunction,ViaPad*%
%ADD15C,2.250000*%
%TD*%
%TA.AperFunction,Conductor*%
%ADD16C,0.750000*%
%TD*%
G04 APERTURE END LIST*
D10*
%TO.P,J2,1,Pin_1*%
%TO.N,/5v*%
X197940000Y-67225000D03*
%TO.P,J2,2,Pin_2*%
%TO.N,/GND*%
X197940000Y-69765000D03*
%TO.P,J2,3,Pin_3*%
%TO.N,/3.3v*%
X197940000Y-72305000D03*
%TO.P,J2,4,Pin_4*%
%TO.N,/D-ENC1*%
X197940000Y-74845000D03*
%TO.P,J2,5,Pin_5*%
%TO.N,/D-ENC0*%
X197940000Y-77385000D03*
%TO.P,J2,6,Pin_6*%
%TO.N,/LED*%
X197940000Y-79925000D03*
%TO.P,J2,7,Pin_7*%
%TO.N,/D-LIN1*%
X197940000Y-82465000D03*
%TO.P,J2,8,Pin_8*%
%TO.N,/D-LIN0*%
X197940000Y-85005000D03*
%TD*%
%TO.P,J-Mot1,1,Pin_1*%
%TO.N,/OUT1*%
X170635000Y-88815000D03*
%TO.P,J-Mot1,2,Pin_2*%
%TO.N,/OUT2*%
X170635000Y-91355000D03*
%TO.P,J-Mot1,3,Pin_3*%
%TO.N,/OUT3*%
X170635000Y-93895000D03*
%TO.P,J-Mot1,4,Pin_4*%
%TO.N,/OUT4*%
X170635000Y-96435000D03*
%TD*%
%TO.P,J-led1,1,Pin_1*%
%TO.N,Net-(J-led1-Pin_1)*%
X201280000Y-45000000D03*
%TO.P,J-led1,2,Pin_2*%
%TO.N,/LED*%
X201280000Y-47540000D03*
%TD*%
D11*
%TO.P,JRd4,1,Pin_1*%
%TO.N,/3.3v*%
X192390000Y-47540000D03*
%TO.P,JRd4,2,Pin_2*%
%TO.N,Net-(JRd4-Pin_2)*%
X192390000Y-45000000D03*
%TD*%
D12*
%TO.P,V5-IN1,1,Pin_1*%
%TO.N,/5v*%
X180447500Y-103350000D03*
%TO.P,V5-IN1,2,Pin_2*%
%TO.N,/GND*%
X180447500Y-107310000D03*
%TD*%
D10*
%TO.P,J-LIN1,1,Pin_1*%
%TO.N,/3.3v*%
X208735000Y-78655000D03*
%TO.P,J-LIN1,2,Pin_2*%
%TO.N,/GND*%
X208735000Y-81195000D03*
%TO.P,J-LIN1,3,Pin_3*%
%TO.N,/D-LIN1*%
X208735000Y-83735000D03*
%TO.P,J-LIN1,4,Pin_4*%
%TO.N,/A-LIN1*%
X208735000Y-86275000D03*
%TD*%
%TO.P,J-Pow1,1,Pin_1*%
%TO.N,/5v*%
X200010000Y-53890000D03*
%TO.P,J-Pow1,2,Pin_2*%
%TO.N,/GND*%
X200010000Y-56430000D03*
%TO.P,J-Pow1,3,Pin_3*%
%TO.N,/3.3v*%
X200010000Y-58970000D03*
%TD*%
%TO.P,J-ENC1,1,Pin_1*%
%TO.N,/3.3v*%
X208735000Y-58335000D03*
%TO.P,J-ENC1,2,Pin_2*%
%TO.N,/GND*%
X208735000Y-60875000D03*
%TO.P,J-ENC1,3,Pin_3*%
%TO.N,/D-ENC1*%
X208735000Y-63415000D03*
%TO.P,J-ENC1,4,Pin_4*%
%TO.N,/A-ENC1*%
X208735000Y-65955000D03*
%TD*%
D11*
%TO.P,JRd3,1,Pin_1*%
%TO.N,/3.3v*%
X187310000Y-47545000D03*
%TO.P,JRd3,2,Pin_2*%
%TO.N,Net-(JRd3-Pin_2)*%
X187310000Y-45005000D03*
%TD*%
D10*
%TO.P,JRd2,1,Pin_1*%
%TO.N,/3.3v*%
X179055000Y-56425000D03*
%TO.P,JRd2,2,Pin_2*%
%TO.N,Net-(JRd2-Pin_2)*%
X179055000Y-58965000D03*
%TD*%
D13*
%TO.P,C2,1*%
%TO.N,/5v*%
X201520000Y-104222621D03*
%TO.P,C2,2*%
%TO.N,/GND*%
X201520000Y-106722621D03*
%TD*%
D11*
%TO.P,J-but1,1,Pin_1*%
%TO.N,/BUT*%
X178420000Y-47540000D03*
%TO.P,J-but1,2,Pin_2*%
%TO.N,/GND*%
X178420000Y-45000000D03*
%TD*%
D10*
%TO.P,J-ENC0,1,Pin_1*%
%TO.N,/3.3v*%
X208735000Y-68495000D03*
%TO.P,J-ENC0,2,Pin_2*%
%TO.N,/GND*%
X208735000Y-71035000D03*
%TO.P,J-ENC0,3,Pin_3*%
%TO.N,/D-ENC0*%
X208735000Y-73575000D03*
%TO.P,J-ENC0,4,Pin_4*%
%TO.N,/A-ENC0*%
X208735000Y-76115000D03*
%TD*%
%TO.P,J-Mot2,1,Pin_1*%
%TO.N,/3.3v*%
X170635000Y-68490000D03*
%TO.P,J-Mot2,2,Pin_2*%
%TO.N,/GND*%
X170635000Y-71030000D03*
%TD*%
%TO.P,J-Pow2,1,Pin_1*%
%TO.N,/5v*%
X204455000Y-53890000D03*
%TO.P,J-Pow2,2,Pin_2*%
%TO.N,/GND*%
X204455000Y-56430000D03*
%TD*%
%TO.P,J1,1,Pin_1*%
%TO.N,/OUT4*%
X182065000Y-67225000D03*
%TO.P,J1,2,Pin_2*%
%TO.N,/SDA*%
X182065000Y-69765000D03*
%TO.P,J1,3,Pin_3*%
%TO.N,/SCL*%
X182065000Y-72305000D03*
%TO.P,J1,4,Pin_4*%
%TO.N,unconnected-(J1-Pin_4-Pad4)*%
X182065000Y-74845000D03*
%TO.P,J1,5,Pin_5*%
%TO.N,/BUT*%
X182065000Y-77385000D03*
%TO.P,J1,6,Pin_6*%
%TO.N,/OUT3*%
X182065000Y-79925000D03*
%TO.P,J1,7,Pin_7*%
%TO.N,/OUT1*%
X182065000Y-82465000D03*
%TO.P,J1,8,Pin_8*%
%TO.N,/OUT2*%
X182065000Y-85005000D03*
%TD*%
D12*
%TO.P,V5-IN2,1,Pin_1*%
%TO.N,/5v*%
X188067500Y-103425000D03*
%TO.P,V5-IN2,2,Pin_2*%
%TO.N,/GND*%
X188067500Y-107385000D03*
%TD*%
D10*
%TO.P,JRd1,1,Pin_1*%
%TO.N,/3.3v*%
X175715000Y-56430000D03*
%TO.P,JRd1,2,Pin_2*%
%TO.N,Net-(JRd1-Pin_2)*%
X175715000Y-58970000D03*
%TD*%
%TO.P,J-LIN0,1,Pin_1*%
%TO.N,/3.3v*%
X208735000Y-88815000D03*
%TO.P,J-LIN0,2,Pin_2*%
%TO.N,/GND*%
X208735000Y-91355000D03*
%TO.P,J-LIN0,3,Pin_3*%
%TO.N,/D-LIN0*%
X208735000Y-93895000D03*
%TO.P,J-LIN0,4,Pin_4*%
%TO.N,/A-LIN0*%
X208735000Y-96435000D03*
%TD*%
%TO.P,J-I2C1,1,Pin_1*%
%TO.N,/3.3v*%
X170635000Y-76115000D03*
%TO.P,J-I2C1,2,Pin_2*%
%TO.N,/GND*%
X170635000Y-78655000D03*
%TO.P,J-I2C1,3,Pin_3*%
%TO.N,/SDA*%
X170635000Y-81195000D03*
%TO.P,J-I2C1,4,Pin_4*%
%TO.N,/SCL*%
X170635000Y-83735000D03*
%TD*%
D14*
%TO.N,*%
X210000000Y-45000000D03*
X210000000Y-110000000D03*
X170000000Y-110000000D03*
X170000000Y-45000000D03*
D15*
%TO.N,/SCL*%
X178420000Y-73702000D03*
X178420000Y-68368000D03*
%TO.N,/3.3v*%
X211694000Y-73448000D03*
X205020000Y-69930000D03*
X201191000Y-64215000D03*
X211694000Y-67352000D03*
X201210000Y-69930000D03*
X211651898Y-55837102D03*
X211694000Y-77550000D03*
X211694000Y-87710000D03*
X211694000Y-62945000D03*
X195692000Y-64304000D03*
%TO.N,/BUT*%
X186510000Y-72305000D03*
X186548000Y-59478000D03*
%TO.N,/LED*%
X193495000Y-72432000D03*
X193495000Y-59732000D03*
%TD*%
D16*
%TO.N,/SCL*%
X178420000Y-68368000D02*
X178420000Y-73702000D01*
%TO.N,/3.3v*%
X211694000Y-77550000D02*
X211694000Y-87710000D01*
X211694000Y-55879204D02*
X211651898Y-55837102D01*
X205020000Y-69930000D02*
X201210000Y-69930000D01*
X211694000Y-62945000D02*
X211694000Y-55879204D01*
X211694000Y-73448000D02*
X211694000Y-67352000D01*
X201102000Y-64304000D02*
X195692000Y-64304000D01*
X201191000Y-64215000D02*
X201102000Y-64304000D01*
%TO.N,/BUT*%
X186548000Y-59478000D02*
X186548000Y-62127826D01*
X186510000Y-62165826D02*
X186510000Y-72305000D01*
X186548000Y-62127826D02*
X186510000Y-62165826D01*
%TO.N,/LED*%
X193495000Y-59732000D02*
X193495000Y-72432000D01*
%TD*%
M02*
